<?xml version="1.0" encoding="UTF-8" standalone="no"?>
<!DOCTYPE svg PUBLIC "-//W3C//DTD SVG 1.1//EN" "http://www.w3.org/Graphics/SVG/1.1/DTD/svg11.dtd">
<svg width="100%" height="100%" viewBox="0 0 242 242" version="1.1" xmlns="http://www.w3.org/2000/svg" xmlns:xlink="http://www.w3.org/1999/xlink" xml:space="preserve" xmlns:serif="http://www.serif.com/" style="fill-rule:evenodd;clip-rule:evenodd;stroke-miterlimit:2;">
    <g transform="matrix(1,0,0,1,-539,-1498)">
        <rect id="Artboard24" x="539" y="1498" width="242" height="242" style="fill:none;"/>
        <g id="Artboard241" serif:id="Artboard24">
            <g transform="matrix(1.2,0,0,1.2,-135,-321.4)">
                <circle cx="675" cy="1607" r="10" style="fill:none;stroke:rgb(0,220,167);stroke-width:5px;"/>
            </g>
            <g transform="matrix(1.2,0,0,1.2,-135,-219.838)">
                <circle cx="675" cy="1607" r="10" style="fill:none;stroke:rgb(0,220,167);stroke-width:5px;"/>
            </g>
            <g transform="matrix(1.2,0,0,1.2,-235.476,-248.623)">
                <circle cx="675" cy="1607" r="10" style="fill:none;stroke:rgb(0,220,167);stroke-width:5px;"/>
            </g>
            <g transform="matrix(1.2,0,0,1.2,-235.476,-349.913)">
                <circle cx="675" cy="1607" r="10" style="fill:none;stroke:rgb(0,220,167);stroke-width:5px;"/>
            </g>
            <g transform="matrix(1.2,0,0,1.2,-170.845,-396.35)">
                <circle cx="675" cy="1607" r="10" style="fill:none;stroke:rgb(0,220,167);stroke-width:5px;"/>
            </g>
            <g transform="matrix(1.2,0,0,1.2,-170.845,-295.331)">
                <circle cx="675" cy="1607" r="10" style="fill:none;stroke:rgb(0,220,167);stroke-width:5px;"/>
            </g>
            <g transform="matrix(1.2,0,0,1.2,-69.0117,-367.565)">
                <circle cx="675" cy="1607" r="10" style="fill:none;stroke:rgb(0,220,167);stroke-width:5px;"/>
            </g>
            <g transform="matrix(1.2,0,0,1.2,-69.0117,-266.817)">
                <circle cx="675" cy="1607" r="10" style="fill:none;stroke:rgb(0,220,167);stroke-width:5px;"/>
            </g>
            <path d="M574.524,1667.78L574.524,1590.49" style="fill:none;stroke:rgb(0,220,167);stroke-width:6px;"/>
            <g transform="matrix(1,0,0,1,101.019,28.785)">
                <path d="M574.524,1667.78L574.524,1590.49" style="fill:none;stroke:rgb(0,220,167);stroke-width:6px;"/>
            </g>
            <g transform="matrix(1,0,0,1,165.921,-16.8365)">
                <path d="M574.524,1667.78L574.524,1590.49" style="fill:none;stroke:rgb(0,220,167);stroke-width:6px;"/>
            </g>
            <path d="M732,1667.78L687,1701" style="fill:none;stroke:rgb(0,220,167);stroke-width:6px;"/>
            <g transform="matrix(1,0,0,1,0,-101.291)">
                <path d="M732,1667.78L687,1701" style="fill:none;stroke:rgb(0,220,167);stroke-width:6px;"/>
            </g>
            <path d="M586.524,1582.1L663,1605" style="fill:none;stroke:rgb(0,220,167);stroke-width:6px;"/>
            <g transform="matrix(1.012,0.00359356,0.00359356,1.00108,50.9293,-50.9525)">
                <path d="M586.524,1582.1L663.335,1604" style="fill:none;stroke:rgb(0,220,167);stroke-width:5.94px;"/>
            </g>
            <g transform="matrix(1,0,0,1,0,100.802)">
                <path d="M586.524,1582.1L663,1605" style="fill:none;stroke:rgb(0,220,167);stroke-width:6px;"/>
            </g>
            <path d="M586.524,1571L630,1539" style="fill:none;stroke:rgb(0,220,167);stroke-width:6px;"/>
            <path d="M586.524,1672L596,1665" style="fill:none;stroke:rgb(0,220,167);stroke-width:6px;"/>
            <g transform="matrix(1,0,0,1,16.9959,-12.9916)">
                <path d="M586.524,1672L596,1665" style="fill:none;stroke:rgb(0,220,167);stroke-width:6px;"/>
            </g>
            <g transform="matrix(1,0,0,1,34.4367,-25.5383)">
                <path d="M586.524,1672L596,1665" style="fill:none;stroke:rgb(0,220,167);stroke-width:6px;"/>
            </g>
            <path d="M729,1659.01L716,1655.51" style="fill:none;stroke:rgb(0,220,167);stroke-width:6px;"/>
            <g transform="matrix(1,0,0,1,-22.1569,-6.40682)">
                <path d="M729,1659.01L716,1655.51" style="fill:none;stroke:rgb(0,220,167);stroke-width:6px;"/>
            </g>
            <g transform="matrix(1,0,0,1,-45.3817,-13.3476)">
                <path d="M729,1659.01L716,1655.51" style="fill:none;stroke:rgb(0,220,167);stroke-width:6px;"/>
            </g>
            <g transform="matrix(0.928276,-0.0193103,-0.0193103,0.994801,15.7165,3.12591)">
                <path d="M729,1659.01L716,1655.51" style="fill:none;stroke:rgb(0,220,167);stroke-width:6.36px;"/>
            </g>
            <path d="M639.155,1544.05L639.155,1557" style="fill:none;stroke:rgb(0,220,167);stroke-width:6px;"/>
            <g transform="matrix(1,0,0,1,0,23.1358)">
                <path d="M639.155,1544.05L639.155,1557" style="fill:none;stroke:rgb(0,220,167);stroke-width:6px;"/>
            </g>
            <g transform="matrix(1,0,0,1,0,46.4495)">
                <path d="M639.155,1544.05L639.155,1557" style="fill:none;stroke:rgb(0,220,167);stroke-width:6px;"/>
            </g>
            <g transform="matrix(1,0,0,0.691111,0,546.703)">
                <path d="M639.155,1544.05L639.155,1557" style="fill:none;stroke:rgb(0,220,167);stroke-width:6.98px;"/>
            </g>
        </g>
    </g>
</svg>
