<?xml version="1.0" encoding="UTF-8" standalone="no"?>
<!DOCTYPE svg PUBLIC "-//W3C//DTD SVG 1.1//EN" "http://www.w3.org/Graphics/SVG/1.1/DTD/svg11.dtd">
<svg width="100%" height="100%" viewBox="0 0 242 242" version="1.1" xmlns="http://www.w3.org/2000/svg" xmlns:xlink="http://www.w3.org/1999/xlink" xml:space="preserve" xmlns:serif="http://www.serif.com/" style="fill-rule:evenodd;clip-rule:evenodd;stroke-linejoin:round;stroke-miterlimit:2;">
    <g transform="matrix(1,0,0,1,-1,-684)">
        <g id="Artboard7" transform="matrix(1,0,0,1,270,273)">
            <rect x="-269" y="411" width="242" height="242" style="fill:none;"/>
            <g transform="matrix(1.10039,0,0,1.22487,10.5174,-115.242)">
                <g>
                    <g transform="matrix(1,0,0,1,-270,-273)">
                        <path d="M92.766,825.584C90.928,825.49 89.122,825.356 87.425,825.423C84.929,825.521 82.639,826.024 80.665,827.295C78.738,828.537 77.053,830.536 75.931,833.863C75.494,835.157 76.309,836.525 77.749,836.917C79.189,837.309 80.713,836.577 81.149,835.284C81.82,833.293 82.689,832.019 83.843,831.276C84.949,830.563 86.264,830.372 87.664,830.317C90.234,830.216 93.059,830.594 95.862,830.563C96.623,830.554 97.183,830.329 97.615,830.046C98.143,829.699 98.53,829.224 98.722,828.596C98.835,828.227 98.884,827.738 98.763,827.17C98.677,826.764 98.291,825.761 98.226,825.591C98.149,824.343 98.231,823.049 98.589,821.849C99.683,818.181 102.837,815.514 106.174,813.82C107.484,813.155 107.946,811.66 107.206,810.483C106.466,809.306 104.801,808.89 103.491,809.556C98.954,811.859 94.809,815.594 93.322,820.581C92.843,822.187 92.689,823.909 92.766,825.584Z" style="fill:rgb(0,220,167);"/>
                    </g>
                    <g transform="matrix(1,0,0,1,-270,-273)">
                        <path d="M58.104,811.409C57.747,811.562 56.735,811.988 56.036,812.209C54.023,812.845 51.907,813.524 50.916,814.265C49.411,815.39 48.348,817.346 47.747,819.624C47.048,822.274 46.9,825.374 46.664,827.271C46.498,828.614 47.576,829.827 49.072,829.976C50.567,830.126 51.917,829.157 52.083,827.814C52.3,826.063 52.408,823.199 53.053,820.754C53.348,819.634 53.664,818.583 54.404,818.03C54.798,817.736 55.549,817.547 56.338,817.299C57.574,816.909 58.916,816.517 59.968,816.077C61.593,815.396 62.641,814.443 63.033,813.543C64.072,811.159 64.658,808.574 65.519,806.396C66.037,805.087 66.563,803.911 67.743,803.343C68.487,802.985 69.455,802.922 70.729,803.085C71.924,803.238 73.09,803.571 74.246,803.903C76.194,804.462 78.118,805.097 80.014,805.816C81.4,806.342 83,805.759 83.586,804.514C84.172,803.268 83.522,801.83 82.136,801.304C80.089,800.527 78.011,799.841 75.906,799.237C74.46,798.821 72.993,798.427 71.498,798.235C68.66,797.872 66.567,798.296 64.949,799.134C63.302,799.988 62.101,801.31 61.2,802.974C59.928,805.325 59.315,808.491 58.104,811.409Z" style="fill:rgb(0,220,167);"/>
                    </g>
                    <g transform="matrix(1,0,0,1,-270,-273)">
                        <path d="M97.796,787.864C100.271,778.387 104.81,770.459 115.828,773.289C117.275,773.66 118.785,772.907 119.199,771.607C119.613,770.307 118.774,768.95 117.327,768.579C112.82,767.421 109.053,767.587 105.896,768.652C98.895,771.013 94.733,778.146 92.488,786.745C92.144,788.061 93.054,789.381 94.519,789.689C95.984,789.998 97.452,789.18 97.796,787.864Z" style="fill:rgb(0,220,167);"/>
                    </g>
                    <g transform="matrix(1,0,0,1,-270,-273)">
                        <path d="M76.592,762.784C76.286,762.937 75.47,763.334 74.903,763.547C73.704,763.996 72.508,764.382 71.929,764.652C67.003,766.95 63.476,771.417 63.393,776.998C63.373,778.35 64.578,779.462 66.083,779.48C67.588,779.498 68.825,778.415 68.845,777.064C68.9,773.414 71.221,770.502 74.442,768.999C75.297,768.6 77.577,767.947 79.065,767.181C80.326,766.532 81.156,765.705 81.492,764.988C81.87,764.181 82.093,763.316 82.279,762.429C82.458,761.575 82.567,760.688 83.009,759.884C85.559,755.252 90.336,755.187 95.026,755.366C96.53,755.423 97.802,754.373 97.866,753.022C97.929,751.672 96.761,750.529 95.257,750.472C88.439,750.212 81.828,750.98 78.121,757.713C77.547,758.756 77.262,759.874 77.031,760.99C76.904,761.602 76.807,762.214 76.592,762.784Z" style="fill:rgb(0,220,167);"/>
                    </g>
                    <g transform="matrix(1,0,0,1,-270,-273)">
                        <path d="M43.662,783.788C43.456,784.021 42.974,784.556 42.587,784.898C40.869,786.414 38.588,788.025 37.881,788.829C33.853,793.41 34.172,798.504 34.321,804.661C34.5,812.069 35.355,819.308 41.061,823.976C42.029,824.768 43.354,825.384 44.66,825.973C45.289,826.257 45.93,826.503 46.39,826.855C46.436,827.084 46.517,827.527 46.547,827.848C46.653,828.982 46.655,830.218 46.708,830.79C47.166,835.779 46.599,840.23 49.611,844.54C52.687,848.943 56.656,850.628 60.894,853.345C61.477,853.718 61.961,854.555 62.513,855.375C63.387,856.672 64.269,858.012 65.121,858.838C70.547,864.105 76.074,866.612 83.223,867.509C83.48,868.232 83.784,869.076 83.851,869.219C84.848,871.375 86.235,873.325 87.876,875.037C93.468,880.869 101.582,882.961 109.908,882.11C115.379,881.551 119.346,880.702 122.378,877.772C125.223,875.023 127.312,870.209 128.646,861.193C128.845,859.853 127.795,858.621 126.303,858.442C124.812,858.264 123.44,859.207 123.241,860.547C122.547,865.234 121.702,868.634 120.585,871.114C119.657,873.177 118.578,874.516 117.177,875.372C115.13,876.624 112.535,876.912 109.291,877.243C102.779,877.909 96.381,876.402 92.008,871.84C90.737,870.515 89.658,869.008 88.885,867.339C88.746,867.038 87.983,864.703 87.714,864.227C87.019,862.997 85.87,862.852 85.481,862.818C78.879,862.239 73.953,860.199 69.122,855.511C68.311,854.723 67.525,853.312 66.685,852.121C65.847,850.932 64.938,849.919 64.061,849.357C60.419,847.023 56.872,845.719 54.229,841.936C53.091,840.307 52.693,838.637 52.507,836.911C52.283,834.827 52.351,832.665 52.142,830.387C52.07,829.608 52.076,827.658 51.829,826.289C51.624,825.153 51.162,824.277 50.715,823.821C49.984,823.075 48.948,822.456 47.792,821.91C46.738,821.413 45.533,821.009 44.732,820.354C40.104,816.568 39.917,810.562 39.772,804.555C39.654,799.649 38.951,795.515 42.159,791.866C42.923,790.997 45.709,789.154 47.287,787.57C48.572,786.28 49.154,784.952 49.127,784.041C48.98,779.132 48.234,773.957 48.402,768.939C48.555,764.368 49.474,759.924 52.647,756.026C53.707,754.725 55.565,754.303 57.157,753.574C58.919,752.767 60.494,751.767 61.549,750.23C62.619,748.672 63.343,747.152 64.102,745.714C64.974,744.059 65.867,742.519 67.898,741.3C69.775,740.175 71.896,739.686 74.014,739.189C76.665,738.566 79.318,737.946 81.728,736.674C83.416,735.784 84.847,734.312 86.196,732.649C87.661,730.843 88.993,728.735 91.013,727.606C95.565,725.06 101.04,725.062 106.467,726.049C112.386,727.125 118.262,729.405 123.078,731.388C124.446,731.951 126.065,731.41 126.692,730.181C127.319,728.952 126.717,727.498 125.349,726.934C119.123,724.371 111.231,721.403 103.612,720.703C98.117,720.198 92.761,720.858 88.131,723.447C85.919,724.684 84.207,726.712 82.603,728.743C81.45,730.202 80.409,731.689 78.967,732.45C76.995,733.49 74.802,733.94 72.634,734.45C69.933,735.084 67.264,735.791 64.871,737.226C62.342,738.743 60.92,740.54 59.769,742.533C58.848,744.129 58.135,745.872 56.908,747.659C56.002,748.98 54.248,749.387 52.714,750.064C50.983,750.828 49.383,751.739 48.246,753.134C44.39,757.871 43.138,763.236 42.952,768.792C42.785,773.771 43.489,778.903 43.662,783.788Z" style="fill:rgb(0,220,167);"/>
                    </g>
                </g>
                <g transform="matrix(-1,0,0,1,-288.112,0)">
                    <g transform="matrix(1,0,0,1,-270,-273)">
                        <path d="M98.226,825.591C98.291,825.761 98.677,826.764 98.763,827.17C98.884,827.738 98.835,828.227 98.722,828.596C98.53,829.224 98.143,829.699 97.615,830.046C97.183,830.329 96.623,830.554 95.862,830.563C93.059,830.594 90.234,830.216 87.664,830.317C86.264,830.372 84.949,830.563 83.843,831.276C82.689,832.019 81.82,833.293 81.149,835.284C80.713,836.577 79.189,837.309 77.749,836.917C76.309,836.525 75.494,835.157 75.931,833.863C77.053,830.536 78.738,828.537 80.665,827.295C82.639,826.024 84.929,825.521 87.425,825.423C89.122,825.356 90.928,825.49 92.766,825.584C92.689,823.909 92.843,822.187 93.322,820.581C94.809,815.594 98.954,811.859 103.491,809.556C104.801,808.89 106.466,809.306 107.206,810.483C107.946,811.66 107.484,813.155 106.174,813.82C102.837,815.514 99.683,818.181 98.589,821.849C98.231,823.049 98.149,824.343 98.226,825.591Z" style="fill:rgb(0,220,167);"/>
                    </g>
                    <g transform="matrix(1,0,0,1,-270,-273)">
                        <path d="M58.104,811.409C59.315,808.491 59.928,805.325 61.2,802.974C62.101,801.31 63.302,799.988 64.949,799.134C66.567,798.296 68.66,797.872 71.498,798.235C72.993,798.427 74.46,798.821 75.906,799.237C78.011,799.841 80.089,800.527 82.136,801.304C83.522,801.83 84.172,803.268 83.586,804.514C83,805.759 81.4,806.342 80.014,805.816C78.118,805.097 76.194,804.462 74.246,803.903C73.09,803.571 71.924,803.238 70.729,803.085C69.455,802.922 68.487,802.985 67.743,803.343C66.563,803.911 66.037,805.087 65.519,806.396C64.658,808.574 64.072,811.159 63.033,813.543C62.641,814.443 61.593,815.396 59.968,816.077C58.916,816.517 57.574,816.909 56.338,817.299C55.549,817.547 54.798,817.736 54.404,818.03C53.664,818.583 53.348,819.634 53.053,820.754C52.408,823.199 52.3,826.063 52.083,827.814C51.917,829.157 50.567,830.126 49.072,829.976C47.576,829.827 46.498,828.614 46.664,827.271C46.9,825.374 47.048,822.274 47.747,819.624C48.348,817.346 49.411,815.39 50.916,814.265C51.907,813.524 54.023,812.845 56.036,812.209C56.735,811.988 57.747,811.562 58.104,811.409Z" style="fill:rgb(0,220,167);"/>
                    </g>
                    <g transform="matrix(1,0,0,1,-270,-273)">
                        <path d="M92.488,786.745C94.733,778.146 98.895,771.013 105.896,768.652C109.053,767.587 112.82,767.421 117.327,768.579C118.774,768.95 119.613,770.307 119.199,771.607C118.785,772.907 117.275,773.66 115.828,773.289C104.81,770.459 100.271,778.387 97.796,787.864C97.452,789.18 95.984,789.998 94.519,789.689C93.054,789.381 92.144,788.061 92.488,786.745Z" style="fill:rgb(0,220,167);"/>
                    </g>
                    <g transform="matrix(1,0,0,1,-270,-273)">
                        <path d="M76.592,762.784C76.807,762.214 76.904,761.602 77.031,760.99C77.262,759.874 77.547,758.756 78.121,757.713C81.828,750.98 88.439,750.212 95.257,750.472C96.761,750.529 97.929,751.672 97.866,753.022C97.802,754.373 96.53,755.423 95.026,755.366C90.336,755.187 85.559,755.252 83.009,759.884C82.567,760.688 82.458,761.575 82.279,762.429C82.093,763.316 81.87,764.181 81.492,764.988C81.156,765.705 80.326,766.532 79.065,767.181C77.577,767.947 75.297,768.6 74.442,768.999C71.221,770.502 68.9,773.414 68.845,777.064C68.825,778.415 67.588,779.498 66.083,779.48C64.578,779.462 63.373,778.35 63.393,776.998C63.476,771.417 67.003,766.95 71.929,764.652C72.508,764.382 73.704,763.996 74.903,763.547C75.47,763.334 76.286,762.937 76.592,762.784Z" style="fill:rgb(0,220,167);"/>
                    </g>
                    <g transform="matrix(1,0,0,1,-270,-273)">
                        <path d="M83.223,867.509C76.074,866.612 70.547,864.105 65.121,858.838C64.269,858.012 63.387,856.672 62.513,855.375C61.961,854.555 61.477,853.718 60.894,853.345C56.656,850.628 52.687,848.943 49.611,844.54C46.599,840.23 47.166,835.779 46.708,830.79C46.655,830.218 46.653,828.982 46.547,827.848C46.517,827.527 46.436,827.084 46.39,826.855C45.93,826.503 45.289,826.257 44.66,825.973C43.354,825.384 42.029,824.768 41.061,823.976C35.355,819.308 34.5,812.069 34.321,804.661C34.172,798.504 33.853,793.41 37.881,788.829C38.588,788.025 40.869,786.414 42.587,784.898C42.974,784.556 43.456,784.021 43.662,783.788C43.489,778.903 42.785,773.771 42.952,768.792C43.138,763.236 44.39,757.871 48.246,753.134C49.383,751.739 50.983,750.828 52.714,750.064C54.248,749.387 56.002,748.98 56.908,747.659C58.135,745.872 58.848,744.129 59.769,742.533C60.92,740.54 62.342,738.743 64.871,737.226C67.264,735.791 69.933,735.084 72.634,734.45C74.802,733.94 76.995,733.49 78.967,732.45C80.409,731.689 81.45,730.202 82.603,728.743C84.207,726.712 85.919,724.684 88.131,723.447C92.761,720.858 98.117,720.198 103.612,720.703C111.231,721.403 119.123,724.371 125.349,726.934C126.717,727.498 127.319,728.952 126.692,730.181C126.065,731.41 124.446,731.951 123.078,731.388C118.262,729.405 112.386,727.125 106.467,726.049C101.04,725.062 95.565,725.06 91.013,727.606C88.993,728.735 87.661,730.843 86.196,732.649C84.847,734.312 83.416,735.784 81.728,736.674C79.318,737.946 76.665,738.566 74.014,739.189C71.896,739.686 69.775,740.175 67.898,741.3C65.867,742.519 64.974,744.059 64.102,745.714C63.343,747.152 62.619,748.672 61.549,750.23C60.494,751.767 58.919,752.767 57.157,753.574C55.565,754.303 53.707,754.725 52.647,756.026C49.474,759.924 48.555,764.368 48.402,768.939C48.234,773.957 48.98,779.132 49.127,784.041C49.154,784.952 48.572,786.28 47.287,787.57C45.709,789.154 42.923,790.997 42.159,791.866C38.951,795.515 39.654,799.649 39.772,804.555C39.917,810.562 40.104,816.568 44.732,820.354C45.533,821.009 46.738,821.413 47.792,821.91C48.948,822.456 49.984,823.075 50.715,823.821C51.162,824.277 51.624,825.153 51.829,826.289C52.076,827.658 52.07,829.608 52.142,830.387C52.351,832.665 52.283,834.827 52.507,836.911C52.693,838.637 53.091,840.307 54.229,841.936C56.872,845.719 60.419,847.023 64.061,849.357C64.938,849.919 65.847,850.932 66.685,852.121C67.525,853.312 68.311,854.723 69.122,855.511C73.953,860.199 78.879,862.239 85.481,862.818C85.87,862.852 87.019,862.997 87.714,864.227C87.983,864.703 88.746,867.038 88.885,867.339C89.658,869.008 90.737,870.515 92.008,871.84C96.381,876.402 102.779,877.909 109.291,877.243C112.535,876.912 115.13,876.624 117.177,875.372C118.578,874.516 119.657,873.177 120.585,871.114C121.702,868.634 122.547,865.234 123.241,860.547C123.44,859.207 124.812,858.264 126.303,858.442C127.795,858.621 128.845,859.853 128.646,861.193C127.312,870.209 125.223,875.023 122.378,877.772C119.346,880.702 115.379,881.551 109.908,882.11C101.582,882.961 93.468,880.869 87.876,875.037C86.235,873.325 84.848,871.375 83.851,869.219C83.784,869.076 83.48,868.232 83.223,867.509Z" style="fill:rgb(0,220,167);"/>
                    </g>
                </g>
                <g transform="matrix(1,0,0,1,-270,-273)">
                    <path d="M122.425,729.161L122.425,772.652C122.425,774.004 123.647,775.101 125.152,775.101C126.656,775.101 127.878,774.004 127.878,772.652L127.878,729.161C127.878,727.809 126.656,726.712 125.152,726.712C123.647,726.712 122.425,727.809 122.425,729.161Z" style="fill:rgb(0,220,167);"/>
                </g>
                <g transform="matrix(1,0,0,1,-270,-273)">
                    <path d="M128.19,859.856C128.481,836.924 128.98,813.888 128.445,790.959C128.413,789.608 127.166,788.533 125.662,788.562C124.158,788.59 122.962,789.71 122.994,791.062C123.527,813.938 123.028,836.921 122.738,859.8C122.721,861.152 123.928,862.262 125.433,862.277C126.938,862.293 128.173,861.208 128.19,859.856Z" style="fill:rgb(0,220,167);"/>
                </g>
                <g transform="matrix(1,0,0,1,-270,-273)">
                    <path d="M127.869,855.933C128.73,853.825 129.74,851.36 131.264,849.593C132.28,848.414 133.565,847.584 135.407,847.995C136.867,848.321 138.348,847.521 138.711,846.209C139.073,844.897 138.183,843.567 136.722,843.241C132.449,842.287 129.311,843.859 126.954,846.592C125.105,848.736 123.794,851.689 122.75,854.246C122.232,855.515 122.958,856.923 124.371,857.389C125.783,857.854 127.351,857.202 127.869,855.933Z" style="fill:rgb(0,220,167);"/>
                </g>
                <g transform="matrix(-1,0,0,1,-18.7349,-273)">
                    <path d="M122.75,854.246C123.794,851.689 125.105,848.736 126.954,846.592C129.311,843.859 132.449,842.287 136.722,843.241C138.183,843.567 139.073,844.897 138.711,846.209C138.348,847.521 136.867,848.321 135.407,847.995C133.565,847.584 132.28,848.414 131.264,849.593C129.74,851.36 128.73,853.825 127.869,855.933C127.351,857.202 125.783,857.854 124.371,857.389C122.958,856.923 122.232,855.515 122.75,854.246Z" style="fill:rgb(0,220,167);"/>
                </g>
            </g>
        </g>
    </g>
</svg>
