<?xml version="1.0" encoding="UTF-8" standalone="no"?>
<!DOCTYPE svg PUBLIC "-//W3C//DTD SVG 1.1//EN" "http://www.w3.org/Graphics/SVG/1.1/DTD/svg11.dtd">
<svg width="100%" height="100%" viewBox="0 0 242 242" version="1.1" xmlns="http://www.w3.org/2000/svg" xmlns:xlink="http://www.w3.org/1999/xlink" xml:space="preserve" xmlns:serif="http://www.serif.com/" style="fill-rule:evenodd;clip-rule:evenodd;stroke-miterlimit:2;">
    <g transform="matrix(1,0,0,1,-1070,-955)">
        <rect id="Artboard16" x="1070" y="955" width="242" height="242" style="fill:none;"/>
        <g id="Artboard161" serif:id="Artboard16">
            <g transform="matrix(1,0,0,1,0,-4)">
                <g transform="matrix(1,0,0,1.11111,-6.5,-109.889)">
                    <path d="M1299,1000.25C1299,994.041 1293.4,989 1286.5,989L1108.5,989C1101.6,989 1096,994.041 1096,1000.25L1096,1022.75C1096,1028.96 1101.6,1034 1108.5,1034L1286.5,1034C1293.4,1034 1299,1028.96 1299,1022.75L1299,1000.25Z" style="fill:none;stroke:rgb(0,220,167);stroke-width:5.68px;"/>
                </g>
                <g transform="matrix(1,0,0,1,-6,3.5)">
                    <circle cx="1273.5" cy="1010.5" r="8.5" style="fill:none;stroke:rgb(0,220,167);stroke-width:5px;"/>
                </g>
                <g transform="matrix(1,0,0,1,-32.2705,3.5)">
                    <circle cx="1273.5" cy="1010.5" r="8.5" style="fill:none;stroke:rgb(0,220,167);stroke-width:5px;"/>
                </g>
                <g transform="matrix(1,0,0,1,-59.4166,3.5)">
                    <circle cx="1273.5" cy="1010.5" r="8.5" style="fill:none;stroke:rgb(0,220,167);stroke-width:5px;"/>
                </g>
                <g transform="matrix(1.46,0,0,1,-511.98,0)">
                    <path d="M1113,1022.5L1163,1022.5" style="fill:none;stroke:rgb(0,220,167);stroke-width:4px;"/>
                </g>
                <g transform="matrix(0.693566,0,0,0.693566,614.326,290.047)">
                    <circle cx="725" cy="1039" r="6" style="fill:rgb(0,220,167);"/>
                </g>
                <g transform="matrix(0.693566,0,0,0.693566,627.848,290.047)">
                    <circle cx="725" cy="1039" r="6" style="fill:rgb(0,220,167);"/>
                </g>
            </g>
            <g transform="matrix(1,0,0,1,0,62.6592)">
                <g transform="matrix(1,0,0,1.11111,-6.5,-109.889)">
                    <path d="M1299,1000.25C1299,994.041 1293.4,989 1286.5,989L1108.5,989C1101.6,989 1096,994.041 1096,1000.25L1096,1022.75C1096,1028.96 1101.6,1034 1108.5,1034L1286.5,1034C1293.4,1034 1299,1028.96 1299,1022.75L1299,1000.25Z" style="fill:none;stroke:rgb(0,220,167);stroke-width:5.68px;"/>
                </g>
                <g transform="matrix(1,0,0,1,-6,3.5)">
                    <circle cx="1273.5" cy="1010.5" r="8.5" style="fill:none;stroke:rgb(0,220,167);stroke-width:5px;"/>
                </g>
                <g transform="matrix(1,0,0,1,-32.2705,3.5)">
                    <circle cx="1273.5" cy="1010.5" r="8.5" style="fill:none;stroke:rgb(0,220,167);stroke-width:5px;"/>
                </g>
                <g transform="matrix(1,0,0,1,-59.4166,3.5)">
                    <circle cx="1273.5" cy="1010.5" r="8.5" style="fill:none;stroke:rgb(0,220,167);stroke-width:5px;"/>
                </g>
                <g transform="matrix(1.46,0,0,1,-511.98,0)">
                    <path d="M1113,1022.5L1163,1022.5" style="fill:none;stroke:rgb(0,220,167);stroke-width:4px;"/>
                </g>
                <g transform="matrix(0.693566,0,0,0.693566,614.326,290.047)">
                    <circle cx="725" cy="1039" r="6" style="fill:rgb(0,220,167);"/>
                </g>
                <g transform="matrix(0.693566,0,0,0.693566,627.848,290.047)">
                    <circle cx="725" cy="1039" r="6" style="fill:rgb(0,220,167);"/>
                </g>
            </g>
            <g transform="matrix(1,0,0,1,0,128.548)">
                <g transform="matrix(1,0,0,1.11111,-6.5,-109.889)">
                    <path d="M1299,1000.25C1299,994.041 1293.4,989 1286.5,989L1108.5,989C1101.6,989 1096,994.041 1096,1000.25L1096,1022.75C1096,1028.96 1101.6,1034 1108.5,1034L1286.5,1034C1293.4,1034 1299,1028.96 1299,1022.75L1299,1000.25Z" style="fill:none;stroke:rgb(0,220,167);stroke-width:5.68px;"/>
                </g>
                <g transform="matrix(1,0,0,1,-6,3.5)">
                    <circle cx="1273.5" cy="1010.5" r="8.5" style="fill:none;stroke:rgb(0,220,167);stroke-width:5px;"/>
                </g>
                <g transform="matrix(1,0,0,1,-32.2705,3.5)">
                    <circle cx="1273.5" cy="1010.5" r="8.5" style="fill:none;stroke:rgb(0,220,167);stroke-width:5px;"/>
                </g>
                <g transform="matrix(1,0,0,1,-59.4166,3.5)">
                    <circle cx="1273.5" cy="1010.5" r="8.5" style="fill:none;stroke:rgb(0,220,167);stroke-width:5px;"/>
                </g>
                <g transform="matrix(1.46,0,0,1,-511.98,0)">
                    <path d="M1113,1022.5L1163,1022.5" style="fill:none;stroke:rgb(0,220,167);stroke-width:4px;"/>
                </g>
                <g transform="matrix(0.693566,0,0,0.693566,614.326,290.047)">
                    <circle cx="725" cy="1039" r="6" style="fill:rgb(0,220,167);"/>
                </g>
                <g transform="matrix(0.693566,0,0,0.693566,627.848,290.047)">
                    <circle cx="725" cy="1039" r="6" style="fill:rgb(0,220,167);"/>
                </g>
            </g>
        </g>
    </g>
</svg>
