<?xml version="1.0" encoding="UTF-8" standalone="no"?>
<!DOCTYPE svg PUBLIC "-//W3C//DTD SVG 1.1//EN" "http://www.w3.org/Graphics/SVG/1.1/DTD/svg11.dtd">
<svg width="100%" height="100%" viewBox="0 0 242 242" version="1.1" xmlns="http://www.w3.org/2000/svg" xmlns:xlink="http://www.w3.org/1999/xlink" xml:space="preserve" xmlns:serif="http://www.serif.com/" style="fill-rule:evenodd;clip-rule:evenodd;stroke-linecap:square;stroke-miterlimit:2;">
    <g transform="matrix(1,0,0,1,-801,-411)">
        <g id="Artboard4" transform="matrix(1,0,0,1,-12,411)">
            <rect x="813" y="0" width="242" height="242" style="fill:none;"/>
            <g transform="matrix(1.0797,0,0,1.20621,-74.7296,-4.46683)">
                <path d="M872.393,154.565C862.158,151.234 849.175,147.308 842.727,137.916C827.637,115.935 846.134,83.661 868.1,75.164" style="fill:none;stroke:rgb(0,220,167);stroke-width:5.24px;"/>
                <path d="M869.512,73.563C870.453,60.339 873.891,46.916 883.634,37.355C899.285,21.996 929.881,15.883 948.902,28.318C955.167,32.414 959.553,39.063 962.836,45.643" style="fill:none;stroke:rgb(0,220,167);stroke-width:5.24px;"/>
                <path d="M963.994,45.2C975.46,42.689 989.647,44.41 996.323,55.167C997.768,57.494 998.199,60.293 998.664,62.957C999.246,66.298 999.418,69.782 999.062,73.159" style="fill:none;stroke:rgb(0,220,167);stroke-width:5.24px;"/>
                <path d="M999.532,73.112C1007.18,73.934 1013.88,74.351 1020.32,78.878C1037.36,90.846 1043.09,116.868 1033,135.021C1025.72,148.106 1009.94,154.743 995.934,157.446" style="fill:none;stroke:rgb(0,220,167);stroke-width:5.24px;"/>
            </g>
            <g transform="matrix(1.94441,0,0,1.94441,536.368,-18.1912)">
                <path d="M207.487,71.183C205.503,70.939 203.497,70.939 201.513,71.183L200.909,75.267C199.038,75.599 197.221,76.189 195.512,77.02L192.624,74.071C190.875,75.04 189.252,76.219 187.79,77.583L189.702,81.242C188.383,82.61 187.261,84.155 186.367,85.833L182.296,85.144C181.451,86.956 180.831,88.864 180.45,90.827L184.148,92.663C183.885,94.545 183.885,96.455 184.148,98.337L180.45,100.173C180.831,102.136 181.451,104.044 182.296,105.856L186.367,105.167C187.261,106.845 188.383,108.39 189.702,109.758L187.79,113.417C189.252,114.781 190.875,115.96 192.624,116.929L195.512,113.98C197.221,114.811 199.038,115.401 200.909,115.733L201.513,119.817C203.497,120.061 205.503,120.061 207.487,119.817L208.091,115.733C209.962,115.401 211.779,114.811 213.488,113.98L216.376,116.929C218.125,115.96 219.748,114.781 221.21,113.417L219.298,109.758C220.617,108.39 221.739,106.845 222.633,105.167L226.704,105.856C227.549,104.044 228.169,102.136 228.55,100.173L224.852,98.337C225.115,96.455 225.115,94.545 224.852,92.663L228.55,90.827C228.169,88.864 227.549,86.956 226.704,85.144L222.633,85.833C221.739,84.155 220.617,82.61 219.298,81.242L221.21,77.583C219.748,76.219 218.125,75.04 216.376,74.071L213.488,77.02C211.779,76.189 209.962,75.599 208.091,75.267L207.487,71.183ZM204.5,84.816C210.397,84.816 215.184,89.603 215.184,95.5C215.184,101.397 210.397,106.184 204.5,106.184C198.603,106.184 193.816,101.397 193.816,95.5C193.816,89.603 198.603,84.816 204.5,84.816Z" style="fill:none;stroke:rgb(0,220,167);stroke-width:3.09px;stroke-linecap:butt;"/>
            </g>
        </g>
    </g>
</svg>
