<?xml version="1.0" encoding="UTF-8" standalone="no"?>
<!DOCTYPE svg PUBLIC "-//W3C//DTD SVG 1.1//EN" "http://www.w3.org/Graphics/SVG/1.1/DTD/svg11.dtd">
<svg width="100%" height="100%" viewBox="0 0 242 242" version="1.1" xmlns="http://www.w3.org/2000/svg" xmlns:xlink="http://www.w3.org/1999/xlink" xml:space="preserve" xmlns:serif="http://www.serif.com/" style="fill-rule:evenodd;clip-rule:evenodd;stroke-miterlimit:2;">
    <g transform="matrix(1,0,0,1,-804,-1228)">
        <rect id="Artboard20" x="804" y="1228" width="242" height="242" style="fill:none;"/>
        <g id="Artboard201" serif:id="Artboard20">
            <g transform="matrix(0.683453,0,0,0.683453,293.147,426.68)">
                <path d="M994,1314.75C994,1295.57 978.429,1280 959.25,1280L889.75,1280C870.571,1280 855,1295.57 855,1314.75L855,1384.25C855,1403.43 870.571,1419 889.75,1419L959.25,1419C978.429,1419 994,1403.43 994,1384.25L994,1314.75Z" style="fill:none;stroke:rgb(0,220,167);stroke-width:8.78px;"/>
            </g>
            <g transform="matrix(1,0,0,1.68,6.3611,-848.04)">
                <g transform="matrix(1,0,0,1.38889,1,-495.611)">
                    <path d="M896,1259L896,1277" style="fill:none;stroke:rgb(0,220,167);stroke-width:3.34px;"/>
                </g>
                <g transform="matrix(1,0,0,1.38889,15.6005,-495.611)">
                    <path d="M896,1259L896,1277" style="fill:none;stroke:rgb(0,220,167);stroke-width:3.34px;"/>
                </g>
                <g transform="matrix(1,0,0,1.38889,30.0538,-495.611)">
                    <path d="M896,1259L896,1277" style="fill:none;stroke:rgb(0,220,167);stroke-width:3.34px;"/>
                </g>
                <g transform="matrix(1,0,0,1.38889,44.2778,-495.611)">
                    <path d="M896,1259L896,1277" style="fill:none;stroke:rgb(0,220,167);stroke-width:3.34px;"/>
                </g>
            </g>
            <g transform="matrix(1,0,0,1.68,6.3611,-706.259)">
                <g transform="matrix(1,0,0,1.38889,1,-495.611)">
                    <path d="M896,1259L896,1277" style="fill:none;stroke:rgb(0,220,167);stroke-width:3.34px;"/>
                </g>
                <g transform="matrix(1,0,0,1.38889,15.6005,-495.611)">
                    <path d="M896,1259L896,1277" style="fill:none;stroke:rgb(0,220,167);stroke-width:3.34px;"/>
                </g>
                <g transform="matrix(1,0,0,1.38889,30.0538,-495.611)">
                    <path d="M896,1259L896,1277" style="fill:none;stroke:rgb(0,220,167);stroke-width:3.34px;"/>
                </g>
                <g transform="matrix(1,0,0,1.38889,44.2778,-495.611)">
                    <path d="M896,1259L896,1277" style="fill:none;stroke:rgb(0,220,167);stroke-width:3.34px;"/>
                </g>
            </g>
            <g transform="matrix(6.12323e-17,-1,1.68,1.0287e-16,-1130.04,2267.64)">
                <g transform="matrix(1,0,0,1.38889,1,-495.611)">
                    <path d="M896,1259L896,1277" style="fill:none;stroke:rgb(0,220,167);stroke-width:3.34px;"/>
                </g>
                <g transform="matrix(1,0,0,1.38889,15.6005,-495.611)">
                    <path d="M896,1259L896,1277" style="fill:none;stroke:rgb(0,220,167);stroke-width:3.34px;"/>
                </g>
                <g transform="matrix(1,0,0,1.38889,30.0538,-495.611)">
                    <path d="M896,1259L896,1277" style="fill:none;stroke:rgb(0,220,167);stroke-width:3.34px;"/>
                </g>
                <g transform="matrix(1,0,0,1.38889,44.2778,-495.611)">
                    <path d="M896,1259L896,1277" style="fill:none;stroke:rgb(0,220,167);stroke-width:3.34px;"/>
                </g>
            </g>
            <g transform="matrix(6.12323e-17,-1,1.68,1.0287e-16,-1272.05,2267.64)">
                <g transform="matrix(1,0,0,1.38889,1,-495.611)">
                    <path d="M896,1259L896,1277" style="fill:none;stroke:rgb(0,220,167);stroke-width:3.34px;"/>
                </g>
                <g transform="matrix(1,0,0,1.38889,15.6005,-495.611)">
                    <path d="M896,1259L896,1277" style="fill:none;stroke:rgb(0,220,167);stroke-width:3.34px;"/>
                </g>
                <g transform="matrix(1,0,0,1.38889,30.0538,-495.611)">
                    <path d="M896,1259L896,1277" style="fill:none;stroke:rgb(0,220,167);stroke-width:3.34px;"/>
                </g>
                <g transform="matrix(1,0,0,1.38889,44.2778,-495.611)">
                    <path d="M896,1259L896,1277" style="fill:none;stroke:rgb(0,220,167);stroke-width:3.34px;"/>
                </g>
            </g>
        </g>
    </g>
</svg>
