<?xml version="1.0" encoding="UTF-8" standalone="no"?>
<!DOCTYPE svg PUBLIC "-//W3C//DTD SVG 1.1//EN" "http://www.w3.org/Graphics/SVG/1.1/DTD/svg11.dtd">
<svg width="100%" height="100%" viewBox="0 0 242 242" version="1.1" xmlns="http://www.w3.org/2000/svg" xmlns:xlink="http://www.w3.org/1999/xlink" xml:space="preserve" xmlns:serif="http://www.serif.com/" style="fill-rule:evenodd;clip-rule:evenodd;stroke-miterlimit:2;">
    <g transform="matrix(1,0,0,1,-803,-955)">
        <rect id="Artboard15" x="803" y="955" width="242" height="242" style="fill:none;"/>
        <g id="Artboard151" serif:id="Artboard15">
            <g transform="matrix(1.08333,0,0,1.08333,55.611,-118.625)">
                <circle cx="725" cy="1039" r="6" style="fill:rgb(0,220,167);"/>
            </g>
            <path d="M926.864,1127.13L1021.25,1127.13L1021.25,983.929L824.503,983.929L824.503,1127.63L887.513,1127.63" style="fill:none;stroke:rgb(0,220,167);stroke-width:6px;"/>
            <g transform="matrix(1.08333,0,0,1.08333,55.611,-96.964)">
                <circle cx="725" cy="1039" r="6" style="fill:rgb(0,220,167);"/>
            </g>
            <path d="M841.028,1046L841.028,1082" style="fill:none;stroke:rgb(0,220,167);stroke-width:6px;"/>
            <path d="M873,1167L924.5,1088L938,1082L937,1095L885,1176" style="fill:none;stroke:rgb(0,220,167);stroke-width:6px;"/>
            <g transform="matrix(1.22144,0.153304,0.153304,1.10613,-374.743,-259.438)">
                <path d="M886,1176L873,1167" style="fill:none;stroke:rgb(0,220,167);stroke-width:4.55px;"/>
            </g>
            <path d="M893.491,1113.44L857.129,1113.44L857.129,996.88L1010.55,996.88L1010.55,1114.43L938.071,1114.43" style="fill:none;stroke:rgb(0,220,167);stroke-width:6px;"/>
            <g transform="matrix(0.869151,0,0,0.82566,128.69,177.658)">
                <path d="M952.081,1019.02C944.982,1021.85 937.802,1021.5 930.559,1020.65C922.442,1019.71 914.243,1018.15 905.972,1018.82C898.157,1019.46 890.924,1020.98 885.081,1026.53C879.93,1031.42 880.37,1036.87 882.641,1042.43C884.221,1046.3 886.948,1050.18 887.628,1053.79C888.051,1056.04 886.996,1058.09 886.035,1060.18C884.514,1063.49 882.955,1066.84 882.918,1070.35C882.79,1082.63 894.195,1091.58 905.897,1087.31C909.451,1086.01 911.75,1083.94 913.729,1081.51C915.308,1079.57 916.642,1077.35 918.517,1075.23C922.369,1070.86 928.669,1067.89 934.519,1068.5C936.37,1068.69 937.709,1070.07 938.932,1071.56C940.734,1073.74 942.221,1076.32 943.697,1078.17C949.595,1085.53 959.456,1088.55 968.396,1085.29C976.269,1082.42 982.567,1074.38 982.587,1065.85C982.593,1063.34 982.137,1060.89 981.742,1058.43C981.44,1056.55 981.161,1054.67 981.426,1052.74C981.818,1049.89 983.059,1047.26 984.174,1044.59C985.596,1041.19 986.848,1037.75 986.951,1034.05C987.077,1029.52 985.195,1025.46 982.125,1022.27C977.92,1017.91 971.446,1015.27 965.749,1015.4C961.512,1015.5 957.148,1017.31 953.13,1018.5C952.744,1018.61 952.391,1018.79 952.081,1019.02ZM955.534,1025.33C955.342,1025.46 955.133,1025.58 954.911,1025.67C946.625,1029.08 938.258,1028.86 929.8,1027.88C922.108,1026.98 914.342,1025.43 906.504,1026.07C900.256,1026.58 894.376,1027.49 889.706,1031.93C887.251,1034.26 887.902,1036.91 888.983,1039.56C890.754,1043.9 893.638,1048.34 894.399,1052.38C894.995,1055.54 894.279,1058.56 893.053,1061.52C891.829,1064.48 889.853,1067.31 889.821,1070.43C889.744,1077.77 896.639,1083 903.632,1080.44C906.363,1079.44 907.873,1077.65 909.332,1075.69C910.622,1073.96 911.861,1072.09 913.459,1070.28C918.681,1064.36 927.265,1060.44 935.198,1061.26C938.192,1061.58 940.692,1063.12 942.821,1065.31C945.243,1067.79 947.13,1071.18 948.975,1073.48C953.073,1078.6 959.927,1080.68 966.14,1078.42C971.313,1076.54 975.671,1071.44 975.684,1065.83C975.689,1063.74 975.265,1061.69 974.936,1059.64C974.514,1057.02 974.224,1054.39 974.594,1051.7C975.074,1048.21 976.488,1044.93 977.856,1041.66C978.917,1039.12 979.974,1036.6 980.051,1033.84C980.119,1031.36 978.959,1029.19 977.278,1027.45C974.356,1024.41 969.859,1022.58 965.9,1022.67C962.415,1022.75 958.863,1024.29 955.534,1025.33Z" style="fill:rgb(0,220,167);"/>
            </g>
        </g>
    </g>
</svg>
