<?xml version="1.0" encoding="UTF-8" standalone="no"?>
<!DOCTYPE svg PUBLIC "-//W3C//DTD SVG 1.1//EN" "http://www.w3.org/Graphics/SVG/1.1/DTD/svg11.dtd">
<svg width="100%" height="100%" viewBox="0 0 263 242" version="1.1" xmlns="http://www.w3.org/2000/svg" xmlns:xlink="http://www.w3.org/1999/xlink" xml:space="preserve" xmlns:serif="http://www.serif.com/" style="fill-rule:evenodd;clip-rule:evenodd;stroke-linecap:round;stroke-miterlimit:2;">
    <g id="Artboard1" transform="matrix(0.796374,0,0,0.94902,-734.257,-42.7059)">
        <rect x="922" y="45" width="329" height="255" style="fill-opacity:0;"/>
        <g transform="matrix(1.25569,0,0,1.05372,-279.733,-20.3306)">
            <g transform="matrix(1,0,0,1,922,45)">
                <path d="M147,252L157,234L138,190L96,190L99,173L91,163L94,159L88,155L91,142L79,132L96,105L91,90L107,50L150,28L209,33L239,73L236,116L217,151L223,198L253,251" style="fill:none;stroke:rgb(0,220,167);stroke-width:6px;"/>
            </g>
            <g transform="matrix(1.28571,0,0,1.28571,842.571,0.714286)">
                <path d="M207.341,71.165C205.454,70.945 203.546,70.945 201.659,71.165L200.248,74.297C198.603,74.627 197.002,75.147 195.477,75.847L192.495,74.143C190.838,75.074 189.295,76.195 187.898,77.483L188.597,80.846C187.46,82.079 186.471,83.441 185.649,84.904L182.234,85.278C181.441,87.005 180.852,88.819 180.478,90.683L183.021,92.992C182.826,94.658 182.826,96.342 183.021,98.008L180.478,100.317C180.852,102.181 181.441,103.995 182.234,105.722L185.649,106.096C186.471,107.559 187.46,108.921 188.597,110.154L187.898,113.517C189.295,114.805 190.838,115.926 192.495,116.857L195.477,115.153C197.002,115.853 198.603,116.373 200.248,116.703L201.659,119.835C203.546,120.055 205.454,120.055 207.341,119.835L208.752,116.703C210.397,116.373 211.998,115.853 213.523,115.153L216.505,116.857C218.162,115.926 219.705,114.805 221.102,113.517L220.403,110.154C221.54,108.921 222.529,107.559 223.351,106.096L226.766,105.722C227.559,103.995 228.148,102.181 228.522,100.317L225.979,98.008C226.174,96.342 226.174,94.658 225.979,92.992L228.522,90.683C228.148,88.819 227.559,87.005 226.766,85.278L223.351,84.904C222.529,83.441 221.54,82.079 220.403,80.846L221.102,77.483C219.705,76.195 218.162,75.074 216.505,74.143L213.523,75.847C211.998,75.147 210.397,74.627 208.752,74.297L207.341,71.165ZM204.5,84.816C210.397,84.816 215.184,89.603 215.184,95.5C215.184,101.397 210.397,106.184 204.5,106.184C198.603,106.184 193.816,101.397 193.816,95.5C193.816,89.603 198.603,84.816 204.5,84.816Z" style="fill:none;stroke:rgb(0,220,167);stroke-width:3.89px;stroke-linecap:butt;"/>
            </g>
            <g transform="matrix(0.734694,0,0,0.734694,931.755,94.5514)">
                <path d="M208.55,71.337C205.869,70.888 203.131,70.888 200.45,71.337L199.1,76.914C197.038,77.513 195.09,78.451 193.335,79.69L188.134,77.268C186.111,79.084 184.404,81.224 183.084,83.601L186.602,88.133C185.784,90.119 185.303,92.227 185.178,94.371L180.042,96.929C180.2,99.642 180.809,102.311 181.844,104.825L187.581,104.9C188.624,106.778 189.972,108.468 191.571,109.903L190.367,115.513C192.588,117.081 195.054,118.269 197.665,119.027L201.301,114.589C203.419,114.944 205.581,114.944 207.699,114.589L211.335,119.027C213.946,118.269 216.412,117.081 218.633,115.513L217.429,109.903C219.028,108.468 220.376,106.778 221.419,104.9L227.156,104.825C228.191,102.311 228.8,99.642 228.958,96.929L223.822,94.371C223.697,92.227 223.216,90.119 222.398,88.133L225.916,83.601C224.596,81.224 222.889,79.084 220.866,77.268L215.665,79.69C213.91,78.451 211.962,77.513 209.9,76.914L208.55,71.337ZM204.5,87.632C208.843,87.632 212.368,91.157 212.368,95.5C212.368,99.843 208.843,103.368 204.5,103.368C200.157,103.368 196.632,99.843 196.632,95.5C196.632,91.157 200.157,87.632 204.5,87.632Z" style="fill:none;stroke:rgb(0,220,167);stroke-width:6.81px;stroke-linecap:butt;"/>
            </g>
        </g>
    </g>
</svg>
