<svg width="174" height="174" viewBox="0 0 174 174" fill="none" xmlns="http://www.w3.org/2000/svg">
<g clip-path="url(#clip0_277_76)">
<path d="M38.8274 40.9834H91.7877" stroke="#00DCA7" stroke-width="4.31469" stroke-miterlimit="2"/>
<path d="M91.0747 88.4686H127.744" stroke="#00DCA7" stroke-width="4.21011" stroke-miterlimit="2"/>
<path d="M47.0972 88.4686H72.2625" stroke="#00DCA7" stroke-width="4.20759" stroke-miterlimit="2"/>
<path d="M46.9973 136.053H55.6254" stroke="#00DCA7" stroke-width="3.96" stroke-miterlimit="2"/>
<path d="M73.9897 136.053H132.948" stroke="#00DCA7" stroke-width="3.97" stroke-miterlimit="2"/>
<path d="M30.5579 48.8925C34.7274 48.8925 38.1075 45.5124 38.1075 41.3429C38.1075 37.1734 34.7274 33.7933 30.5579 33.7933C26.3884 33.7933 23.0083 37.1734 23.0083 41.3429C23.0083 45.5124 26.3884 48.8925 30.5579 48.8925Z" stroke="#00DCA7" stroke-width="4.31405" stroke-miterlimit="2"/>
<path d="M99.3357 48.8925C103.505 48.8925 106.885 45.5124 106.885 41.3429C106.885 37.1734 103.505 33.7933 99.3357 33.7933C95.1662 33.7933 91.7861 37.1734 91.7861 41.3429C91.7861 45.5124 95.1662 48.8925 99.3357 48.8925Z" stroke="#00DCA7" stroke-width="4.31405" stroke-miterlimit="2"/>
<path d="M81.6853 95.909C85.8549 95.909 89.2349 92.5289 89.2349 88.3594C89.2349 84.1899 85.8549 80.8098 81.6853 80.8098C77.5158 80.8098 74.1357 84.1899 74.1357 88.3594C74.1357 92.5289 77.5158 95.909 81.6853 95.909Z" stroke="#00DCA7" stroke-width="4.31405" stroke-miterlimit="2"/>
<path d="M64.9722 143.3C69.1417 143.3 72.5218 139.92 72.5218 135.75C72.5218 131.581 69.1417 128.201 64.9722 128.201C60.8027 128.201 57.4226 131.581 57.4226 135.75C57.4226 139.92 60.8027 143.3 64.9722 143.3Z" stroke="#00DCA7" stroke-width="4.31405" stroke-miterlimit="2"/>
<path d="M139.698 142.581C143.074 142.581 145.81 139.845 145.81 136.469C145.81 133.094 143.074 130.358 139.698 130.358C136.323 130.358 133.587 133.094 133.587 136.469C133.587 139.845 136.323 142.581 139.698 142.581Z" stroke="#00DCA7" stroke-width="4.31302" stroke-miterlimit="2"/>
<path d="M108.335 40.9834H127.749" stroke="#00DCA7" stroke-width="4.31528" stroke-miterlimit="2"/>
<path d="M127.75 40.9834C139.517 40.9834 149.075 51.6156 149.075 64.7107C149.075 77.8059 139.517 88.4381 127.75 88.4381" stroke="#00DCA7" stroke-width="4.22955" stroke-miterlimit="2"/>
<path d="M47.0978 88.4688C35.3206 88.4688 25.7627 99.1009 25.7627 112.196C25.7627 125.291 35.3206 135.923 47.0978 135.923" stroke="#00DCA7" stroke-width="4.22955" stroke-miterlimit="2"/>
<path d="M139.696 130.358V95.9092" stroke="#00DCA7" stroke-width="4.31405" stroke-miterlimit="2"/>
<path d="M139.696 114.322H162.496L155.378 107.201L162.518 100.06H140.926" stroke="#00DCA7" stroke-width="4.31405" stroke-miterlimit="2"/>
</g>
<defs>
<clipPath id="clip0_277_76">
<rect width="174" height="174" fill="white"/>
</clipPath>
</defs>
</svg>
