<svg width="128" height="24" viewBox="0 0 128 24" fill="none" xmlns="http://www.w3.org/2000/svg">
<path d="M9.46169 5.28442C10.4449 2.83317 10.9366 1.60754 11.782 1.60754C12.6274 1.60754 13.119 2.83317 14.1023 5.28442L14.1481 5.39856C14.7035 6.7834 14.9813 7.47581 15.5474 7.89667C16.1134 8.31753 16.8565 8.38408 18.3426 8.51718L18.6113 8.54124C21.0436 8.75907 22.2597 8.86798 22.5199 9.64171C22.7802 10.4154 21.877 11.2371 20.0707 12.8805L19.4678 13.429C18.5535 14.2608 18.0963 14.6768 17.8832 15.222C17.8434 15.3237 17.8104 15.4278 17.7843 15.5339C17.6442 16.1022 17.7781 16.7056 18.0458 17.9124L18.1292 18.2881C18.6213 20.506 18.8673 21.615 18.4377 22.0933C18.2772 22.272 18.0685 22.4007 17.8368 22.464C17.2165 22.6332 16.3359 21.9156 14.5747 20.4805C13.4183 19.5382 12.84 19.067 12.1762 18.961C11.915 18.9193 11.6489 18.9193 11.3878 18.961C10.7239 19.067 10.1457 19.5382 8.98922 20.4805C7.22803 21.9156 6.34743 22.6332 5.72718 22.464C5.49541 22.4007 5.28677 22.272 5.12624 22.0933C4.69665 21.615 4.94269 20.506 5.43478 18.2881L5.51813 17.9124C5.78589 16.7056 5.91977 16.1022 5.7797 15.5339C5.75357 15.4278 5.72053 15.3237 5.68078 15.222C5.46769 14.6768 5.01049 14.2608 4.09611 13.429L3.49326 12.8805C1.68696 11.2371 0.783803 10.4154 1.04403 9.64171C1.30425 8.86798 2.52038 8.75907 4.95265 8.54124L5.22132 8.51718C6.70747 8.38408 7.45054 8.31753 8.0166 7.89667C8.58266 7.47581 8.86041 6.7834 9.4159 5.39856L9.46169 5.28442Z" fill="#00DCA7" stroke="#00DCA7" stroke-width="1.82292"/>
<path d="M35.4617 5.28442C36.4449 2.83317 36.9366 1.60754 37.782 1.60754C38.6274 1.60754 39.119 2.83317 40.1023 5.28442L40.1481 5.39856C40.7035 6.7834 40.9813 7.47581 41.5474 7.89667C42.1134 8.31753 42.8565 8.38408 44.3426 8.51718L44.6113 8.54124C47.0436 8.75907 48.2597 8.86798 48.5199 9.64171C48.7802 10.4154 47.877 11.2371 46.0707 12.8805L45.4678 13.429C44.5535 14.2608 44.0963 14.6768 43.8832 15.222C43.8434 15.3237 43.8104 15.4278 43.7843 15.5339C43.6442 16.1022 43.7781 16.7056 44.0458 17.9124L44.1292 18.2881C44.6213 20.506 44.8673 21.615 44.4377 22.0933C44.2772 22.272 44.0685 22.4007 43.8368 22.464C43.2165 22.6332 42.3359 21.9156 40.5747 20.4805C39.4183 19.5382 38.84 19.067 38.1762 18.961C37.915 18.9193 37.6489 18.9193 37.3878 18.961C36.7239 19.067 36.1457 19.5382 34.9892 20.4805C33.228 21.9156 32.3474 22.6332 31.7272 22.464C31.4954 22.4007 31.2868 22.272 31.1262 22.0933C30.6966 21.615 30.9427 20.506 31.4348 18.2881L31.5181 17.9124C31.7859 16.7056 31.9198 16.1022 31.7797 15.5339C31.7536 15.4278 31.7205 15.3237 31.6808 15.222C31.4677 14.6768 31.0105 14.2608 30.0961 13.429L29.4933 12.8805C27.687 11.2371 26.7838 10.4154 27.044 9.64171C27.3042 8.86798 28.5204 8.75907 30.9526 8.54124L31.2213 8.51718C32.7075 8.38408 33.4505 8.31753 34.0166 7.89667C34.5827 7.47581 34.8604 6.7834 35.4159 5.39856L35.4617 5.28442Z" fill="#00DCA7" stroke="#00DCA7" stroke-width="1.82292"/>
<path d="M61.4617 5.28442C62.4449 2.83317 62.9366 1.60754 63.782 1.60754C64.6274 1.60754 65.119 2.83317 66.1023 5.28442L66.1481 5.39856C66.7035 6.7834 66.9813 7.47581 67.5474 7.89667C68.1134 8.31753 68.8565 8.38408 70.3426 8.51718L70.6113 8.54124C73.0436 8.75907 74.2597 8.86798 74.5199 9.64171C74.7802 10.4154 73.877 11.2371 72.0707 12.8805L71.4678 13.429C70.5535 14.2608 70.0963 14.6768 69.8832 15.222C69.8434 15.3237 69.8104 15.4278 69.7843 15.5339C69.6442 16.1022 69.7781 16.7056 70.0458 17.9124L70.1292 18.2881C70.6213 20.506 70.8673 21.615 70.4377 22.0933C70.2772 22.272 70.0685 22.4007 69.8368 22.464C69.2165 22.6332 68.3359 21.9156 66.5747 20.4805C65.4183 19.5382 64.84 19.067 64.1762 18.961C63.915 18.9193 63.6489 18.9193 63.3878 18.961C62.7239 19.067 62.1457 19.5382 60.9892 20.4805C59.228 21.9156 58.3474 22.6332 57.7272 22.464C57.4954 22.4007 57.2868 22.272 57.1262 22.0933C56.6966 21.615 56.9427 20.506 57.4348 18.2881L57.5181 17.9124C57.7859 16.7056 57.9198 16.1022 57.7797 15.5339C57.7536 15.4278 57.7205 15.3237 57.6808 15.222C57.4677 14.6768 57.0105 14.2608 56.0961 13.429L55.4933 12.8805C53.687 11.2371 52.7838 10.4154 53.044 9.64171C53.3042 8.86798 54.5204 8.75907 56.9526 8.54124L57.2213 8.51718C58.7075 8.38408 59.4505 8.31753 60.0166 7.89667C60.5827 7.47581 60.8604 6.7834 61.4159 5.39856L61.4617 5.28442Z" fill="#00DCA7" stroke="#00DCA7" stroke-width="1.82292"/>
<path d="M87.4617 5.28442C88.4449 2.83317 88.9366 1.60754 89.782 1.60754C90.6274 1.60754 91.119 2.83317 92.1023 5.28442L92.1481 5.39856C92.7035 6.7834 92.9813 7.47581 93.5474 7.89667C94.1134 8.31753 94.8565 8.38408 96.3426 8.51718L96.6113 8.54124C99.0436 8.75907 100.26 8.86798 100.52 9.64171C100.78 10.4154 99.877 11.2371 98.0707 12.8805L97.4678 13.429C96.5535 14.2608 96.0963 14.6768 95.8832 15.222C95.8434 15.3237 95.8104 15.4278 95.7843 15.5339C95.6442 16.1022 95.7781 16.7056 96.0458 17.9124L96.1292 18.2881C96.6213 20.506 96.8673 21.615 96.4377 22.0933C96.2772 22.272 96.0685 22.4007 95.8368 22.464C95.2165 22.6332 94.3359 21.9156 92.5747 20.4805C91.4183 19.5382 90.84 19.067 90.1762 18.961C89.915 18.9193 89.6489 18.9193 89.3878 18.961C88.7239 19.067 88.1457 19.5382 86.9892 20.4805C85.228 21.9156 84.3474 22.6332 83.7272 22.464C83.4954 22.4007 83.2868 22.272 83.1262 22.0933C82.6966 21.615 82.9427 20.506 83.4348 18.2881L83.5181 17.9124C83.7859 16.7056 83.9198 16.1022 83.7797 15.5339C83.7536 15.4278 83.7205 15.3237 83.6808 15.222C83.4677 14.6768 83.0105 14.2608 82.0961 13.429L81.4933 12.8805C79.687 11.2371 78.7838 10.4154 79.044 9.64171C79.3042 8.86798 80.5204 8.75907 82.9526 8.54124L83.2213 8.51718C84.7075 8.38408 85.4505 8.31753 86.0166 7.89667C86.5827 7.47581 86.8604 6.7834 87.4159 5.39856L87.4617 5.28442Z" fill="#00DCA7" stroke="#00DCA7" stroke-width="1.82292"/>
<path d="M113.462 5.28442C114.445 2.83317 114.937 1.60754 115.782 1.60754C116.627 1.60754 117.119 2.83317 118.102 5.28442L118.148 5.39856C118.704 6.7834 118.981 7.47581 119.547 7.89667C120.113 8.31753 120.856 8.38408 122.343 8.51718L122.611 8.54124C125.044 8.75907 126.26 8.86798 126.52 9.64171C126.78 10.4154 125.877 11.2371 124.071 12.8805L123.468 13.429C122.553 14.2608 122.096 14.6768 121.883 15.222C121.843 15.3237 121.81 15.4278 121.784 15.5339C121.644 16.1022 121.778 16.7056 122.046 17.9124L122.129 18.2881C122.621 20.506 122.867 21.615 122.438 22.0933C122.277 22.272 122.069 22.4007 121.837 22.464C121.217 22.6332 120.336 21.9156 118.575 20.4805C117.418 19.5382 116.84 19.067 116.176 18.961C115.915 18.9193 115.649 18.9193 115.388 18.961C114.724 19.067 114.146 19.5382 112.989 20.4805C111.228 21.9156 110.347 22.6332 109.727 22.464C109.495 22.4007 109.287 22.272 109.126 22.0933C108.697 21.615 108.943 20.506 109.435 18.2881L109.518 17.9124C109.786 16.7056 109.92 16.1022 109.78 15.5339C109.754 15.4278 109.721 15.3237 109.681 15.222C109.468 14.6768 109.01 14.2608 108.096 13.429L107.493 12.8805C105.687 11.2371 104.784 10.4154 105.044 9.64171C105.304 8.86798 106.52 8.75907 108.953 8.54124L109.221 8.51718C110.707 8.38408 111.451 8.31753 112.017 7.89667C112.583 7.47581 112.86 6.7834 113.416 5.39856L113.462 5.28442Z" fill="#00DCA7" stroke="#00DCA7" stroke-width="1.82292"/>
</svg>
