<svg width="128" height="24" viewBox="0 0 128 24" fill="none" xmlns="http://www.w3.org/2000/svg">
<path d="M9.46169 5.28429C10.4449 2.83305 10.9366 1.60742 11.782 1.60742C12.6274 1.60742 13.119 2.83305 14.1023 5.2843L14.1481 5.39844C14.7035 6.78327 14.9813 7.47569 15.5474 7.89655C16.1134 8.31741 16.8565 8.38396 18.3426 8.51706L18.6113 8.54112C21.0436 8.75895 22.2597 8.86786 22.5199 9.64159C22.7802 10.4153 21.877 11.237 20.0707 12.8804L19.4678 13.4288C18.5535 14.2607 18.0963 14.6767 17.8832 15.2218C17.8434 15.3235 17.8104 15.4277 17.7843 15.5337C17.6442 16.1021 17.7781 16.7055 18.0458 17.9123L18.1292 18.288C18.6213 20.5059 18.8673 21.6148 18.4377 22.0932C18.2772 22.2719 18.0685 22.4006 17.8368 22.4638C17.2165 22.6331 16.3359 21.9155 14.5747 20.4804C13.4183 19.5381 12.84 19.0669 12.1762 18.9609C11.915 18.9192 11.6489 18.9192 11.3878 18.9609C10.7239 19.0669 10.1457 19.5381 8.98922 20.4804C7.22803 21.9155 6.34743 22.6331 5.72718 22.4638C5.49541 22.4006 5.28677 22.2719 5.12624 22.0932C4.69665 21.6148 4.94269 20.5059 5.43478 18.288L5.51813 17.9123C5.78589 16.7055 5.91977 16.1021 5.7797 15.5337C5.75357 15.4277 5.72053 15.3235 5.68078 15.2218C5.46769 14.6767 5.01049 14.2607 4.09611 13.4288L3.49326 12.8804C1.68696 11.237 0.783803 10.4153 1.04403 9.64159C1.30425 8.86786 2.52038 8.75895 4.95265 8.54112L5.22132 8.51706C6.70747 8.38396 7.45054 8.31741 8.0166 7.89655C8.58266 7.47569 8.86041 6.78327 9.4159 5.39844L9.46169 5.28429Z" fill="#00DCA7" stroke="#00DCA7" stroke-width="1.82292"/>
<path d="M35.4617 5.28429C36.4449 2.83305 36.9366 1.60742 37.782 1.60742C38.6274 1.60742 39.119 2.83305 40.1023 5.2843L40.1481 5.39844C40.7035 6.78327 40.9813 7.47569 41.5474 7.89655C42.1134 8.31741 42.8565 8.38396 44.3426 8.51706L44.6113 8.54112C47.0436 8.75895 48.2597 8.86786 48.5199 9.64159C48.7802 10.4153 47.877 11.237 46.0707 12.8804L45.4678 13.4288C44.5535 14.2607 44.0963 14.6767 43.8832 15.2218C43.8434 15.3235 43.8104 15.4277 43.7843 15.5337C43.6442 16.1021 43.7781 16.7055 44.0458 17.9123L44.1292 18.288C44.6213 20.5059 44.8673 21.6148 44.4377 22.0932C44.2772 22.2719 44.0685 22.4006 43.8368 22.4638C43.2165 22.6331 42.3359 21.9155 40.5747 20.4804C39.4183 19.5381 38.84 19.0669 38.1762 18.9609C37.915 18.9192 37.6489 18.9192 37.3878 18.9609C36.7239 19.0669 36.1457 19.5381 34.9892 20.4804C33.228 21.9155 32.3474 22.6331 31.7272 22.4638C31.4954 22.4006 31.2868 22.2719 31.1262 22.0932C30.6966 21.6148 30.9427 20.5059 31.4348 18.288L31.5181 17.9123C31.7859 16.7055 31.9198 16.1021 31.7797 15.5337C31.7536 15.4277 31.7205 15.3235 31.6808 15.2218C31.4677 14.6767 31.0105 14.2607 30.0961 13.4288L29.4933 12.8804C27.687 11.237 26.7838 10.4153 27.044 9.64159C27.3042 8.86786 28.5204 8.75895 30.9526 8.54112L31.2213 8.51706C32.7075 8.38396 33.4505 8.31741 34.0166 7.89655C34.5827 7.47569 34.8604 6.78327 35.4159 5.39844L35.4617 5.28429Z" fill="#00DCA7" stroke="#00DCA7" stroke-width="1.82292"/>
<path d="M61.4617 5.28429C62.4449 2.83305 62.9366 1.60742 63.782 1.60742C64.6274 1.60742 65.119 2.83305 66.1023 5.2843L66.1481 5.39844C66.7035 6.78327 66.9813 7.47569 67.5474 7.89655C68.1134 8.31741 68.8565 8.38396 70.3426 8.51706L70.6113 8.54112C73.0436 8.75895 74.2597 8.86786 74.5199 9.64159C74.7802 10.4153 73.877 11.237 72.0707 12.8804L71.4678 13.4288C70.5535 14.2607 70.0963 14.6767 69.8832 15.2218C69.8434 15.3235 69.8104 15.4277 69.7843 15.5337C69.6442 16.1021 69.7781 16.7055 70.0458 17.9123L70.1292 18.288C70.6213 20.5059 70.8673 21.6148 70.4377 22.0932C70.2772 22.2719 70.0685 22.4006 69.8368 22.4638C69.2165 22.6331 68.3359 21.9155 66.5747 20.4804C65.4183 19.5381 64.84 19.0669 64.1762 18.9609C63.915 18.9192 63.6489 18.9192 63.3878 18.9609C62.7239 19.0669 62.1457 19.5381 60.9892 20.4804C59.228 21.9155 58.3474 22.6331 57.7272 22.4638C57.4954 22.4006 57.2868 22.2719 57.1262 22.0932C56.6966 21.6148 56.9427 20.5059 57.4348 18.288L57.5181 17.9123C57.7859 16.7055 57.9198 16.1021 57.7797 15.5337C57.7536 15.4277 57.7205 15.3235 57.6808 15.2218C57.4677 14.6767 57.0105 14.2607 56.0961 13.4288L55.4933 12.8804C53.687 11.237 52.7838 10.4153 53.044 9.64159C53.3042 8.86786 54.5204 8.75895 56.9526 8.54112L57.2213 8.51706C58.7075 8.38396 59.4505 8.31741 60.0166 7.89655C60.5827 7.47569 60.8604 6.78327 61.4159 5.39844L61.4617 5.28429Z" fill="#00DCA7" stroke="#00DCA7" stroke-width="1.82292"/>
<path d="M87.4617 5.28429C88.4449 2.83305 88.9366 1.60742 89.782 1.60742C90.6274 1.60742 91.119 2.83305 92.1023 5.2843L92.1481 5.39844C92.7035 6.78327 92.9813 7.47569 93.5474 7.89655C94.1134 8.31741 94.8565 8.38396 96.3426 8.51706L96.6113 8.54112C99.0436 8.75895 100.26 8.86786 100.52 9.64159C100.78 10.4153 99.877 11.237 98.0707 12.8804L97.4678 13.4288C96.5535 14.2607 96.0963 14.6767 95.8832 15.2218C95.8434 15.3235 95.8104 15.4277 95.7843 15.5337C95.6442 16.1021 95.7781 16.7055 96.0458 17.9123L96.1292 18.288C96.6213 20.5059 96.8673 21.6148 96.4377 22.0932C96.2772 22.2719 96.0685 22.4006 95.8368 22.4638C95.2165 22.6331 94.3359 21.9155 92.5747 20.4804C91.4183 19.5381 90.84 19.0669 90.1762 18.9609C89.915 18.9192 89.6489 18.9192 89.3878 18.9609C88.7239 19.0669 88.1457 19.5381 86.9892 20.4804C85.228 21.9155 84.3474 22.6331 83.7272 22.4638C83.4954 22.4006 83.2868 22.2719 83.1262 22.0932C82.6966 21.6148 82.9427 20.5059 83.4348 18.288L83.5181 17.9123C83.7859 16.7055 83.9198 16.1021 83.7797 15.5337C83.7536 15.4277 83.7205 15.3235 83.6808 15.2218C83.4677 14.6767 83.0105 14.2607 82.0961 13.4288L81.4933 12.8804C79.687 11.237 78.7838 10.4153 79.044 9.64159C79.3042 8.86786 80.5204 8.75895 82.9526 8.54112L83.2213 8.51706C84.7075 8.38396 85.4505 8.31741 86.0166 7.89655C86.5827 7.47569 86.8604 6.78327 87.4159 5.39844L87.4617 5.28429Z" fill="#00DCA7" stroke="#00DCA7" stroke-width="1.82292"/>
<path d="M113.462 4.67687C114.445 2.22562 114.937 1 115.782 1C116.627 1 117.119 2.22562 118.102 4.67687L118.148 4.79102C118.704 6.17585 118.981 6.86827 119.547 7.28913C120.113 7.70999 120.856 7.77654 122.343 7.90964L122.611 7.9337C125.044 8.15153 126.26 8.26044 126.52 9.03417C126.78 9.8079 125.877 10.6296 124.071 12.2729L123.468 12.8214C122.553 13.6533 122.096 14.0693 121.883 14.6144C121.843 14.7161 121.81 14.8203 121.784 14.9263C121.644 15.4946 121.778 16.098 122.046 17.3049L122.129 17.6805C122.621 19.8985 122.867 21.0074 122.438 21.4857C122.277 21.6645 122.069 21.7932 121.837 21.8564C121.217 22.0257 120.336 21.3081 118.575 19.873C117.418 18.9306 116.84 18.4595 116.176 18.3535C115.915 18.3118 115.649 18.3118 115.388 18.3535C114.724 18.4595 114.146 18.9306 112.989 19.873C111.228 21.3081 110.347 22.0257 109.727 21.8564C109.495 21.7932 109.287 21.6645 109.126 21.4857C108.697 21.0074 108.943 19.8985 109.435 17.6805L109.518 17.3049C109.786 16.098 109.92 15.4946 109.78 14.9263C109.754 14.8203 109.721 14.7161 109.681 14.6144C109.468 14.0693 109.01 13.6533 108.096 12.8214L107.493 12.2729C105.687 10.6296 104.784 9.8079 105.044 9.03417C105.304 8.26044 106.52 8.15153 108.953 7.9337L109.221 7.90964C110.707 7.77654 111.451 7.70999 112.017 7.28913C112.583 6.86827 112.86 6.17585 113.416 4.79102L113.462 4.67687Z" stroke="#00DCA7" stroke-width="1.82292"/>
<path d="M116 18.5V1L114 2.5L113 6.5L111.5 7.5L105.5 8.5V10L110 15L109 21L110 21.5L114 19L116 18.5Z" fill="#00DCA7"/>
</svg>
