<?xml version="1.0" encoding="UTF-8" standalone="no"?>
<!DOCTYPE svg PUBLIC "-//W3C//DTD SVG 1.1//EN" "http://www.w3.org/Graphics/SVG/1.1/DTD/svg11.dtd">
<svg width="100%" height="100%" viewBox="0 0 242 242" version="1.1" xmlns="http://www.w3.org/2000/svg" xmlns:xlink="http://www.w3.org/1999/xlink" xml:space="preserve" xmlns:serif="http://www.serif.com/" style="fill-rule:evenodd;clip-rule:evenodd;stroke-miterlimit:2;">
    <g transform="matrix(1,0,0,1,-271,-1498)">
        <rect id="Artboard23" x="271" y="1498" width="242" height="242" style="fill:none;"/>
        <g id="Artboard231" serif:id="Artboard23">
            <g transform="matrix(1.28571,0,0,1.28571,190.571,1535.71)">
                <path d="M207.341,71.165C205.454,70.945 203.546,70.945 201.659,71.165L200.248,74.297C198.603,74.627 197.002,75.147 195.477,75.847L192.495,74.143C190.838,75.074 189.295,76.195 187.898,77.483L188.597,80.846C187.46,82.079 186.471,83.441 185.649,84.904L182.234,85.278C181.441,87.005 180.852,88.819 180.478,90.683L183.021,92.992C182.826,94.658 182.826,96.342 183.021,98.008L180.478,100.317C180.852,102.181 181.441,103.995 182.234,105.722L185.649,106.096C186.471,107.559 187.46,108.921 188.597,110.154L187.898,113.517C189.295,114.805 190.838,115.926 192.495,116.857L195.477,115.153C197.002,115.853 198.603,116.373 200.248,116.703L201.659,119.835C203.546,120.055 205.454,120.055 207.341,119.835L208.752,116.703C210.397,116.373 211.998,115.853 213.523,115.153L216.505,116.857C218.162,115.926 219.705,114.805 221.102,113.517L220.403,110.154C221.54,108.921 222.529,107.559 223.351,106.096L226.766,105.722C227.559,103.995 228.148,102.181 228.522,100.317L225.979,98.008C226.174,96.342 226.174,94.658 225.979,92.992L228.522,90.683C228.148,88.819 227.559,87.005 226.766,85.278L223.351,84.904C222.529,83.441 221.54,82.079 220.403,80.846L221.102,77.483C219.705,76.195 218.162,75.074 216.505,74.143L213.523,75.847C211.998,75.147 210.397,74.627 208.752,74.297L207.341,71.165ZM204.5,84.816C210.397,84.816 215.184,89.603 215.184,95.5C215.184,101.397 210.397,106.184 204.5,106.184C198.603,106.184 193.816,101.397 193.816,95.5C193.816,89.603 198.603,84.816 204.5,84.816Z" style="fill:none;stroke:rgb(0,220,167);stroke-width:3.89px;"/>
            </g>
            <path d="M453.5,1699L453.5,1718L335,1718L336,1637C336,1637 377.431,1589.66 433,1619" style="fill:none;stroke:rgb(0,220,167);stroke-width:6px;"/>
            <g transform="matrix(1,0,0,1,7,0)">
                <path d="M378,1549.5C378,1546.46 375.536,1544 372.5,1544L347.5,1544C344.464,1544 342,1546.46 342,1549.5L342,1560.5C342,1563.54 344.464,1566 347.5,1566L372.5,1566C375.536,1566 378,1563.54 378,1560.5L378,1549.5Z" style="fill:none;stroke:rgb(0,220,167);stroke-width:6px;"/>
                <g transform="matrix(1,0,0,1,50,0)">
                    <path d="M378,1549.5C378,1546.46 375.536,1544 372.5,1544L347.5,1544C344.464,1544 342,1546.46 342,1549.5L342,1560.5C342,1563.54 344.464,1566 347.5,1566L372.5,1566C375.536,1566 378,1563.54 378,1560.5L378,1549.5Z" style="fill:none;stroke:rgb(0,220,167);stroke-width:6px;"/>
                </g>
                <path d="M378,1555L392,1555" style="fill:none;stroke:rgb(0,220,167);stroke-width:6px;"/>
            </g>
            <path d="M435,1537C435,1537 431.437,1510.88 392,1511C352.563,1511.12 349,1536 349,1536" style="fill:none;stroke:rgb(0,220,167);stroke-width:6px;"/>
            <path d="M349,1572C349,1572 356.8,1601.11 392,1602C427.2,1602.89 435,1573 435,1573" style="fill:none;stroke:rgb(0,220,167);stroke-width:6px;"/>
        </g>
    </g>
</svg>
