<?xml version="1.0" encoding="UTF-8" standalone="no"?>
<!DOCTYPE svg PUBLIC "-//W3C//DTD SVG 1.1//EN" "http://www.w3.org/Graphics/SVG/1.1/DTD/svg11.dtd">
<svg width="100%" height="100%" viewBox="0 0 242 242" version="1.1" xmlns="http://www.w3.org/2000/svg" xmlns:xlink="http://www.w3.org/1999/xlink" xml:space="preserve" xmlns:serif="http://www.serif.com/" style="fill-rule:evenodd;clip-rule:evenodd;stroke-miterlimit:2;">
    <g transform="matrix(1,0,0,1,-272,-955)">
        <rect id="Artboard13" x="272" y="955" width="242" height="242" style="fill:none;"/>
        <g id="Artboard131" serif:id="Artboard13">
            <rect x="305" y="990" width="182" height="136" style="fill:none;stroke:rgb(0,220,167);stroke-width:6px;"/>
            <path d="M384,1126C384,1126 385.34,1154.99 346,1156L346,1168L446.5,1168L446.5,1156C446.5,1156 410.478,1158.45 407,1126" style="fill:none;stroke:rgb(0,220,167);stroke-width:6px;"/>
            <g transform="matrix(1,0,0,1,-5.5,1)">
                <g transform="matrix(1,0,0,1,6,0)">
                    <path d="M456,1051.5C456,1032.46 440.541,1017 421.5,1017L369.5,1017C350.459,1017 335,1032.46 335,1051.5C335,1070.54 350.459,1086 369.5,1086L421.5,1086C440.541,1086 456,1070.54 456,1051.5Z" style="fill:none;stroke:rgb(0,220,167);stroke-width:6px;"/>
                </g>
                <g transform="matrix(0.88,0,0,0.88,56.02,126.62)">
                    <circle cx="421" cy="1051" r="25" style="fill:none;stroke:rgb(0,220,167);stroke-width:6.82px;"/>
                </g>
            </g>
            <path d="M335.5,1109L416,1109" style="fill:none;stroke:rgb(0,220,167);stroke-width:6px;"/>
            <path d="M429,1109L456.5,1109" style="fill:none;stroke:rgb(0,220,167);stroke-width:6px;"/>
        </g>
    </g>
</svg>
