<?xml version="1.0" encoding="UTF-8" standalone="no"?>
<!DOCTYPE svg PUBLIC "-//W3C//DTD SVG 1.1//EN" "http://www.w3.org/Graphics/SVG/1.1/DTD/svg11.dtd">
<svg width="100%" height="100%" viewBox="0 0 242 242" version="1.1" xmlns="http://www.w3.org/2000/svg" xmlns:xlink="http://www.w3.org/1999/xlink" xml:space="preserve" xmlns:serif="http://www.serif.com/" style="fill-rule:evenodd;clip-rule:evenodd;stroke-miterlimit:2;">
    <g transform="matrix(1,0,0,1,-535,-684)">
        <rect id="Artboard9" x="535" y="684" width="242" height="242" style="fill:none;"/>
        <g id="Artboard91" serif:id="Artboard9">
            <path d="M583,835L727,835" style="fill:none;stroke:rgb(0,220,167);stroke-width:5px;"/>
            <path d="M685,735L570,735L570,852L547,853L764,853L760,869L554,869L550,854" style="fill:none;stroke:rgb(0,220,167);stroke-width:5px;"/>
            <path d="M742,853L742,735L731,735" style="fill:none;stroke:rgb(0,220,167);stroke-width:5px;"/>
            <path d="M731,703L742,708L697,771L676,787L665,778L678,753L731,703Z" style="fill:none;stroke:rgb(0,220,167);stroke-width:5px;"/>
            <path d="M665,778C665,778 635.661,783.161 643,820" style="fill:none;stroke:rgb(0,220,167);stroke-width:5px;"/>
            <path d="M676,787C676,787 668.025,818.892 640,819" style="fill:none;stroke:rgb(0,220,167);stroke-width:5px;"/>
            <path d="M697,771L678,753" style="fill:none;stroke:rgb(0,220,167);stroke-width:5px;"/>
            <path d="M660.5,792C660.5,792 659.67,801.979 651,806" style="fill:none;stroke:rgb(0,220,167);stroke-width:5px;"/>
            <g transform="matrix(1,0,0,1,0,-2)">
                <circle cx="603" cy="761" r="8" style="fill:none;stroke:rgb(0,220,167);stroke-width:5px;"/>
            </g>
            <g transform="matrix(1,0,0,1,0,24.6326)">
                <circle cx="603" cy="761" r="8" style="fill:none;stroke:rgb(0,220,167);stroke-width:5px;"/>
            </g>
            <g transform="matrix(1,0,0,1,0,50.6249)">
                <circle cx="603" cy="761" r="8" style="fill:none;stroke:rgb(0,220,167);stroke-width:5px;"/>
            </g>
            <g transform="matrix(1,0,0,1,105.89,50.6249)">
                <circle cx="603" cy="761" r="8" style="fill:none;stroke:rgb(0,220,167);stroke-width:5px;"/>
            </g>
        </g>
    </g>
</svg>
